<svg version="1.1" id="Capa_1" xmlns="http://www.w3.org/2000/svg" x="0" y="0" viewBox="0 0 512 512" xml:space="preserve"><style>.st0{fill:#825574}</style><path class="st0" d="M499.8 137L263.9 35.8c-5.1-2.2-10.8-2.2-15.8 0L12.2 137C4.8 140.2 0 147.5 0 155.5s4.8 15.3 12.2 18.5l235.9 100.5c2.5 1.1 5.2 1.6 7.9 1.6s5.4-.5 7.9-1.6L499.8 174c7.4-3.1 12.2-10.4 12.2-18.5 0-8-4.8-15.3-12.2-18.5zM256 234.1L71.2 155.4 256 76.2l184.8 79.3L256 234.1zm254.4 114.5c-4.4-10.2-16.2-14.9-26.4-10.5l-228 97.8L28 338c-10.2-4.4-22 .3-26.4 10.5-4.4 10.2.3 22 10.5 26.4L248 476.1c2.5 1.1 5.2 1.6 7.9 1.6s5.4-.5 7.9-1.6l236-101.1c10.2-4.4 14.9-16.2 10.6-26.4z"/><path class="st0" d="M510.4 248.1c-4.4-10.2-16.2-15-26.4-10.6l-228 97.2-228-97.2c-10.2-4.4-22 .4-26.4 10.6-4.4 10.2.4 22 10.6 26.4L248.1 375c2.5 1.1 5.2 1.6 7.9 1.6s5.4-.5 7.9-1.6l235.9-100.5c10.2-4.4 14.9-16.2 10.6-26.4z"/></svg>