<?xml version="1.0" encoding="utf-8"?>
<!-- Generator: Adobe Illustrator 24.0.1, SVG Export Plug-In . SVG Version: 6.00 Build 0)  -->
<svg version="1.1" id="Capa_1" xmlns="http://www.w3.org/2000/svg" xmlns:xlink="http://www.w3.org/1999/xlink" x="0px" y="0px"
	 viewBox="0 0 512 512" style="enable-background:new 0 0 512 512;" xml:space="preserve">
<style type="text/css">
	.st0{fill:#825574;}
</style>
<g>
	<g>
		<path class="st0" d="M499.8,137L263.9,35.8c-5.1-2.2-10.8-2.2-15.8,0L12.2,137C4.8,140.2,0,147.5,0,155.5c0,8,4.8,15.3,12.2,18.5
			l235.9,100.5c2.5,1.1,5.2,1.6,7.9,1.6c2.7,0,5.4-0.5,7.9-1.6L499.8,174c7.4-3.1,12.2-10.4,12.2-18.5
			C512,147.5,507.2,140.2,499.8,137z M256,234.1L71.2,155.4L256,76.2l184.8,79.3L256,234.1z"/>
	</g>
</g>
<g>
	<g>
		<path class="st0" d="M510.4,348.6c-4.4-10.2-16.2-14.9-26.4-10.5l-228,97.8L28,338c-10.2-4.4-22,0.3-26.4,10.5
			c-4.4,10.2,0.3,22,10.5,26.4l235.9,101.2c2.5,1.1,5.2,1.6,7.9,1.6s5.4-0.5,7.9-1.6L499.8,375C510,370.6,514.7,358.8,510.4,348.6z"
			/>
	</g>
</g>
<g>
	<g>
		<path class="st0" d="M510.4,248.1c-4.4-10.2-16.2-15-26.4-10.6l-228,97.2L28,237.5c-10.2-4.4-22,0.4-26.4,10.6
			c-4.4,10.2,0.4,22,10.6,26.4L248.1,375c2.5,1.1,5.2,1.6,7.9,1.6c2.7,0,5.4-0.5,7.9-1.6l235.9-100.5
			C510,270.1,514.7,258.3,510.4,248.1z"/>
	</g>
</g>
</svg>
